# xmcd CD database file
#
# Track frame offsets:
#	150
#	10643
#	22103
#	33718
#	52963
#	66793
#	82383
#	94083
#	107180
#	121860
#	133558
#	155293
#	173800
#	185013
#
# Disc length: 2709 seconds
#
# Revision: 0
# Processed by: cddbd v1.4PL0 Copyright (c) Steve Scherf et al.
# Submitted via: CDex 1.40Beta9
#
DISCID=b90a930e
DTITLE=Jonny Hill - Komm gut heim
DYEAR=1993
DGENRE=Country
TTITLE0=Heute Nacht da brauch' ich Dich
TTITLE1=Ich fahr' meine Tour
TTITLE2=Ich mag so gerne Dicke
TTITLE3=Kinder, alte Hunde und junger herber Wein
TTITLE4=Laß uns auseinander gehn
TTITLE5=Lucille
TTITLE6=Mehr hinterm Lenkrad als zu Haus
TTITLE7=Mein Lied für Dich
TTITLE8=Nur noch einmal nach Haus
TTITLE9=Oh, warum nicht
TTITLE10=Ruf Teddybär eins-vier
TTITLE11=Sylvias Mutter
TTITLE12=Tennessee Waltz
TTITLE13=Wieder mal auf Tournee
EXTD=YEAR: 1993 ID3G: 2
EXTT0=
EXTT1=
EXTT2=
EXTT3=
EXTT4=
EXTT5=
EXTT6=
EXTT7=
EXTT8=
EXTT9=
EXTT10=
EXTT11=
EXTT12=
EXTT13=
PLAYORDER=
